<?xml version="1.0" encoding="UTF-8"?>
<svg xmlns="http://www.w3.org/2000/svg" width="1080" height="1920" viewBox="0 0 1080 1920">
  <defs>
    <linearGradient id="bg" x1="0" y1="0" x2="0" y2="1">
      <stop offset="0%" stop-color="#4A0F1F"/>
      <stop offset="50%" stop-color="#5A1A2B"/>
      <stop offset="100%" stop-color="#3D0F1C"/>
    </linearGradient>
    <pattern id="diamonds" x="0" y="0" width="120" height="120" patternUnits="userSpaceOnUse">
      <path d="M60 0 L120 60 L60 120 L0 60 Z" fill="none" stroke="#E8B7B0" stroke-width="1" opacity="0.4"/>
    </pattern>
    <style>
      .display { font-family: "DejaVu Sans"; font-weight: 900; }
      .heading { font-family: "DejaVu Sans"; font-weight: 700; }
      .body    { font-family: "DejaVu Sans"; font-weight: 400; }
    </style>
  </defs>

  <!-- Background -->
  <rect width="1080" height="1920" fill="url(#bg)"/>
  <rect width="1080" height="1920" fill="url(#diamonds)" opacity="0.18"/>

  <!-- Decorative frames -->
  <rect x="40" y="40" width="1000" height="1840" rx="16" ry="16" fill="none" stroke="#E8B7B0" stroke-width="2.5" opacity="0.6"/>
  <rect x="54" y="54" width="972" height="1812" rx="10" ry="10" fill="none" stroke="#E8B7B0" stroke-width="1" opacity="0.30"/>

  <!-- Floral corners -->
  <g opacity="0.85">
    <g transform="translate(75,75)">
      <path d="M0 0 L70 0 M0 0 L0 70" stroke="#E8B7B0" stroke-width="2.5" stroke-linecap="round" fill="none"/>
      <circle cx="14" cy="14" r="5" fill="#E8B7B0"/>
      <path d="M28 28 C 50 22, 65 38, 70 60" stroke="#E8B7B0" stroke-width="2" fill="none" stroke-linecap="round"/>
      <path d="M28 28 C 22 50, 38 65, 60 70" stroke="#E8B7B0" stroke-width="2" fill="none" stroke-linecap="round"/>
      <circle cx="70" cy="60" r="6" fill="none" stroke="#E8B7B0" stroke-width="2"/>
      <circle cx="60" cy="70" r="6" fill="none" stroke="#E8B7B0" stroke-width="2"/>
      <g transform="translate(100,50)">
        <ellipse cx="0" cy="-11" rx="5" ry="12" fill="#E8B7B0" opacity="0.75"/>
        <ellipse cx="11" cy="0" rx="12" ry="5" fill="#E8B7B0" opacity="0.75"/>
        <ellipse cx="0" cy="11" rx="5" ry="12" fill="#E8B7B0" opacity="0.75"/>
        <ellipse cx="-11" cy="0" rx="12" ry="5" fill="#E8B7B0" opacity="0.75"/>
        <circle cx="0" cy="0" r="4" fill="#F6EFE3"/>
      </g>
      <g transform="translate(48,100)">
        <ellipse cx="0" cy="-7" rx="3.5" ry="8" fill="#E8B7B0" opacity="0.75"/>
        <ellipse cx="7" cy="0" rx="8" ry="3.5" fill="#E8B7B0" opacity="0.75"/>
        <ellipse cx="0" cy="7" rx="3.5" ry="8" fill="#E8B7B0" opacity="0.75"/>
        <ellipse cx="-7" cy="0" rx="8" ry="3.5" fill="#E8B7B0" opacity="0.75"/>
        <circle cx="0" cy="0" r="3" fill="#F6EFE3"/>
      </g>
    </g>
    <g transform="translate(1005,75) scale(-1,1)">
      <path d="M0 0 L70 0 M0 0 L0 70" stroke="#E8B7B0" stroke-width="2.5" stroke-linecap="round" fill="none"/>
      <circle cx="14" cy="14" r="5" fill="#E8B7B0"/>
      <path d="M28 28 C 50 22, 65 38, 70 60" stroke="#E8B7B0" stroke-width="2" fill="none" stroke-linecap="round"/>
      <path d="M28 28 C 22 50, 38 65, 60 70" stroke="#E8B7B0" stroke-width="2" fill="none" stroke-linecap="round"/>
      <circle cx="70" cy="60" r="6" fill="none" stroke="#E8B7B0" stroke-width="2"/>
      <circle cx="60" cy="70" r="6" fill="none" stroke="#E8B7B0" stroke-width="2"/>
      <g transform="translate(100,50)">
        <ellipse cx="0" cy="-11" rx="5" ry="12" fill="#E8B7B0" opacity="0.75"/>
        <ellipse cx="11" cy="0" rx="12" ry="5" fill="#E8B7B0" opacity="0.75"/>
        <ellipse cx="0" cy="11" rx="5" ry="12" fill="#E8B7B0" opacity="0.75"/>
        <ellipse cx="-11" cy="0" rx="12" ry="5" fill="#E8B7B0" opacity="0.75"/>
        <circle cx="0" cy="0" r="4" fill="#F6EFE3"/>
      </g>
    </g>
    <g transform="translate(75,1845) scale(1,-1)">
      <path d="M0 0 L70 0 M0 0 L0 70" stroke="#E8B7B0" stroke-width="2.5" stroke-linecap="round" fill="none"/>
      <circle cx="14" cy="14" r="5" fill="#E8B7B0"/>
      <path d="M28 28 C 50 22, 65 38, 70 60" stroke="#E8B7B0" stroke-width="2" fill="none" stroke-linecap="round"/>
      <path d="M28 28 C 22 50, 38 65, 60 70" stroke="#E8B7B0" stroke-width="2" fill="none" stroke-linecap="round"/>
      <circle cx="70" cy="60" r="6" fill="none" stroke="#E8B7B0" stroke-width="2"/>
      <circle cx="60" cy="70" r="6" fill="none" stroke="#E8B7B0" stroke-width="2"/>
      <g transform="translate(100,50)">
        <ellipse cx="0" cy="-11" rx="5" ry="12" fill="#E8B7B0" opacity="0.75"/>
        <ellipse cx="11" cy="0" rx="12" ry="5" fill="#E8B7B0" opacity="0.75"/>
        <ellipse cx="0" cy="11" rx="5" ry="12" fill="#E8B7B0" opacity="0.75"/>
        <ellipse cx="-11" cy="0" rx="12" ry="5" fill="#E8B7B0" opacity="0.75"/>
        <circle cx="0" cy="0" r="4" fill="#F6EFE3"/>
      </g>
    </g>
    <g transform="translate(1005,1845) scale(-1,-1)">
      <path d="M0 0 L70 0 M0 0 L0 70" stroke="#E8B7B0" stroke-width="2.5" stroke-linecap="round" fill="none"/>
      <circle cx="14" cy="14" r="5" fill="#E8B7B0"/>
      <path d="M28 28 C 50 22, 65 38, 70 60" stroke="#E8B7B0" stroke-width="2" fill="none" stroke-linecap="round"/>
      <path d="M28 28 C 22 50, 38 65, 60 70" stroke="#E8B7B0" stroke-width="2" fill="none" stroke-linecap="round"/>
      <circle cx="70" cy="60" r="6" fill="none" stroke="#E8B7B0" stroke-width="2"/>
      <circle cx="60" cy="70" r="6" fill="none" stroke="#E8B7B0" stroke-width="2"/>
      <g transform="translate(100,50)">
        <ellipse cx="0" cy="-11" rx="5" ry="12" fill="#E8B7B0" opacity="0.75"/>
        <ellipse cx="11" cy="0" rx="12" ry="5" fill="#E8B7B0" opacity="0.75"/>
        <ellipse cx="0" cy="11" rx="5" ry="12" fill="#E8B7B0" opacity="0.75"/>
        <ellipse cx="-11" cy="0" rx="12" ry="5" fill="#E8B7B0" opacity="0.75"/>
        <circle cx="0" cy="0" r="4" fill="#F6EFE3"/>
      </g>
    </g>
  </g>

  <!-- HEADER -->
  <text x="540" y="245" text-anchor="middle" class="heading" font-size="30" fill="#E8B7B0" letter-spacing="10">FOR  WOMEN   •   BY  WOMEN</text>

  <text x="540" y="345" text-anchor="middle" class="display" font-size="84" fill="#F6EFE3">WOMEN'S</text>
  <text x="540" y="430" text-anchor="middle" class="display" font-size="84" fill="#F6EFE3">SELF-DEFENSE</text>
  <text x="540" y="515" text-anchor="middle" class="display" font-size="76" fill="#F6EFE3">
    <tspan fill="#C9A77A">&amp;</tspan> FIREARM SAFETY
  </text>

  <line x1="470" y1="560" x2="610" y2="560" stroke="#C9A77A" stroke-width="4" stroke-linecap="round"/>

  <text x="540" y="620" text-anchor="middle" class="heading" font-size="34" fill="#F3D8D4">Jujitsu and Gun Safety Classes</text>
  <text x="540" y="665" text-anchor="middle" class="heading" font-size="34" fill="#F3D8D4">for Women</text>

  <!-- ILLUSTRATION CARDS -->
  <!-- Card 1: Jujitsu (kumikata) -->
  <g transform="translate(70,710)">
    <rect width="450" height="450" rx="20" ry="20" fill="#F6EFE3"/>
    <!-- Judo pictogram (Wikimedia Commons, public-domain Olympic-style sport pictogram) -->
    <g transform="translate(60,25) scale(1.10)" fill="#2A0D14">
      <path d="M178.721,105.261c6.671,11.506,14.358,23,25.678,30.422c3.973,2.714,8.627,5.42,13.646,4.376
        c3.57-1.393,6.022-5.196,5.605-9.049c0.238-7.559-5.034-13.573-9.909-18.714c-8.441-9.282-17.638-18.002-24.538-28.555
        c-4.547-6.174-7.235-13.39-10.623-20.203c-3.007-6.746-6.404-13.419-7.886-20.714c-2.287-9.82-1.731-20.008-3.386-29.909
        c-2.166,2.112-2.01,5.352-2.771,8.092c-2.488,10.462-1.611,21.287-1.098,31.913C164.627,71.207,169.807,89.239,178.721,105.261z"/>
      <path d="M237.053,153.481c4.7,1.495,9.674-1.487,11.824-5.67c3.41-6.425,2.259-14.001,1.275-20.892
        c-1.965-15.899-4.385-32.167-1.278-48.083c2.382-9.462,3.456-19.251,6.704-28.487c3.928-10.529,11.057-19.371,16.459-29.123
        l-1.658,0.293c-4.763,3.759-9.363,7.84-13.275,12.498c-7.098,9.754-14.354,19.516-19.591,30.438
        c-6.034,12.15-9.494,25.409-11.358,38.8c-1.544,13.451-1.589,27.484,3.254,40.315C231.151,147.343,233.025,151.668,237.053,153.481z"/>
      <path d="M124.332,137.707c9.366,6.249,19.315,12.007,30.29,14.877c8.549,2.411,17.104,4.804,25.633,7.286
        c1.588,0.475,3.231,0.754,4.898,0.744c-1.037-0.907-2.117-1.779-3.329-2.431c-8.479-4.443-16.968-8.898-25.093-13.965
        c-8.945-6.572-17.439-13.883-24.444-22.533c-3.604-4.725-7.12-9.517-10.771-14.205c-3.414-4.511-7.062-9.068-11.928-12.079
        c-3.085-1.863-6.724-1.669-10.064-0.72c-1.581,2.226-3.57,4.425-3.778,7.286c-0.59,4.703,1.845,9.047,4.34,12.832
        C106.505,124.011,115.405,131.068,124.332,137.707z"/>
      <path d="M73.504,156.573c-5.582-2.175-11.768,1.851-13.751,7.137c-3.955,8.935-1.915,18.884-2.168,28.302
        c-0.501,8.674,0.064,17.453-1.734,26.017c-1.44,11.016-5.978,21.253-9.166,31.813c-2.346,5.944-4.9,11.898-8.608,17.142
        c-4.947,6.617-10.261,12.962-15.073,19.682l1.702-0.049c4.122-2.862,8.33-5.653,12.176-8.887
        c6.121-5.837,11.559-12.342,16.904-18.883c12.277-15.257,21.009-33.287,25.329-52.388c2.316-11.634,4.549-23.757,1.8-35.527
        C79.792,165.681,78.508,159.515,73.504,156.573z"/>
      <path d="M145.464,249.058c-1.026-20.812-7.357-41.348-18.42-59.023c-7.081-11.726-16.265-23.118-29.162-28.624
        c-4.945-2.552-11.822,0.854-12.002,6.581c-1.026,7.064,3.052,13.502,7.584,18.511c9.547,10.499,20.011,20.357,27.563,32.479
        c4.551,7.159,7.371,15.209,11.186,22.751c4.743,9.732,7.246,20.441,7.743,31.24c0.693,5.086,0.044,10.453,1.957,15.291
        c2.673-8.479,4.298-17.392,3.93-26.315C145.608,257.653,145.797,253.347,145.464,249.058z"/>
      <path d="M241.463,233.249c-10.104-5.344-19.133-12.492-27.131-20.626c-6.672-5.994-12.472-13.406-20.863-17.099
        c-3.469-1.723-7.268-0.792-10.807,0.116c-1.475,2.865-2.99,5.996-2.304,9.318c1.236,5.198,4.79,9.414,8.58,13.011
        c10.519,9.733,23.455,16.333,36.61,21.747c13.339,5.462,27.923,5.817,41.986,8.034c3.196,0.3,6.516,1.496,9.664,0.353
        C265.595,242.447,252.539,240.053,241.463,233.249z"/>
      <circle cx="138.381" cy="83.343" r="21.875"/>
      <circle cx="151.375" cy="179.348" r="21.875"/>
    </g>
    <text x="225" y="418" text-anchor="middle" class="display" font-size="36" fill="#3D0F1C" letter-spacing="3">JUJITSU</text>
  </g>

  <!-- Card 2: Firearms -->
  <g transform="translate(560,710)">
    <rect width="450" height="450" rx="20" ry="20" fill="#F6EFE3"/>
    <!-- Shooting pictogram (Wikimedia Commons, public-domain Olympic-style sport pictogram) -->
    <g transform="translate(60,40) scale(1.10)" fill="#2A0D14">
      <path d="M261.675,60.491c-3.119-1.041-6.429-0.608-9.647-0.671c-34.329-0.009-68.658,0.018-102.986-0.014
        c-2.686,0-5.323,0.677-8.012,0.592c-15.008-0.049-30.016,0.012-45.024-0.032c-2.301,0.016-4.718-0.257-6.85,0.805
        c-5.391-0.579-10.764-1.362-16.168-1.778c-3.237,0.512-7.2,0.196-9.555,2.909c-4.099,4.011-4.292,10.837-1.61,15.674
        c2.401,2.331,5.847,3.376,9.151,3.259c9.397,0.064,18.827-0.498,28.091-2.136c14.491-1.895,28.916-4.441,43.443-6.017
        c3.444,8.008,9.122,15.214,16.646,19.739c8.406,5.611,19.517,5.958,28.819,2.508c3.543-2.13,6.364-5.241,9.004-8.378
        c5.121-6.614,9.323-14.045,11.418-22.192c17.68-0.012,35.381,0.328,53.048-0.172C261.77,63.242,261.817,61.864,261.675,60.491z
        M184.977,83.957c-6.2,0.523-12.957-1.975-16.703-7.13c-1.592-2.103-3.09-4.273-4.586-6.442c12.037-0.028,24.076,0.035,36.115-0.033
        C195.387,75.376,192.094,82.325,184.977,83.957z"/>
      <path d="M205.453,274.778c-3.291-11.554-6.318-23.183-9.826-34.67c-8.076-24.559-19.529-48.096-34.467-69.23
        c-4.799-5.919-8.688-12.571-14.052-18.022c-4.199-4.49-9.908-7.494-15.969-8.466c-3.709,0.545-7.37,2.164-9.404,5.464
        c-4.034,5.248-2.503,12.543,0.796,17.742c5.038,8.633,12.812,15.068,19.463,22.371c23.412,25.445,40.601,55.686,57.494,85.636
        c2.256,4.551,3.506,9.61,6.6,13.73c1.006-1.285,0.711-2.905,0.625-4.382C206.381,281.549,206.458,278.073,205.453,274.778z"/>
      <path d="M101.417,146.612c-4.956,1.333-7.8,6.107-9.266,10.692c-2.591,7.976-1.682,16.445-1.838,24.682
        c0.128,32.878-8.523,64.867-16.708,96.451c-1.226,4.595-4.424,8.646-4.483,13.521c0.548,1.409,1.599-0.176,2.034-0.706
        c2.085-2.68,4.344-5.237,6.198-8.085c7.13-12.926,14.235-25.875,20.653-39.172c10.932-24.299,18.768-50.268,20.648-76.944
        c0.531-7.061-1.869-14.447-6.974-19.441C108.575,145.963,104.783,145.664,101.417,146.612z"/>
      <circle cx="121.462" cy="35.336" r="21.875"/>
    </g>
    <text x="225" y="418" text-anchor="middle" class="display" font-size="30" fill="#3D0F1C" letter-spacing="3">FIREARM SAFETY</text>
  </g>

  <!-- PILLS -->
  <g transform="translate(540,1225)">
    <g transform="translate(-260,0)">
      <rect x="-135" y="-30" width="270" height="60" rx="30" ry="30" fill="#E8B7B0"/>
      <text x="0" y="9" text-anchor="middle" class="heading" font-size="24" fill="#3D0F1C" letter-spacing="2">PRIVATE LESSONS</text>
    </g>
    <g transform="translate(260,0)">
      <rect x="-135" y="-30" width="270" height="60" rx="30" ry="30" fill="#E8B7B0"/>
      <text x="0" y="9" text-anchor="middle" class="heading" font-size="24" fill="#3D0F1C" letter-spacing="2">GROUP CLASSES</text>
    </g>
  </g>

  <!-- LOCATION -->
  <text x="540" y="1335" text-anchor="middle" class="display" font-size="42" fill="#F6EFE3" letter-spacing="4">
    <tspan fill="#C9A77A">◆</tspan>  LAKEWOOD, NJ  <tspan fill="#C9A77A">◆</tspan>
  </text>

  <!-- CONTACT CARDS -->
  <g transform="translate(70,1370)">
    <rect width="450" height="230" rx="18" ry="18" fill="#F6EFE3"/>
    <g transform="translate(225,42)">
      <circle cx="0" cy="0" r="24" fill="#E8B7B0"/>
      <path d="M-8 -10 C -8 -12, -6 -13, -4 -12 L -2 -6 C -2 -4, -4 -3, -5 -2 C -3 2, 1 6, 5 8 C 6 7, 7 5, 9 5 L 15 7 C 16 9, 15 11, 13 11 C 1 11, -11 -1, -11 -13" fill="none" stroke="#3D0F1C" stroke-width="2.5" stroke-linecap="round" stroke-linejoin="round"/>
    </g>
    <text x="225" y="105" text-anchor="middle" class="heading" font-size="20" fill="#8A2A3B" letter-spacing="3">JUJITSU INSTRUCTOR</text>
    <text x="225" y="148" text-anchor="middle" class="display" font-size="36" fill="#3D0F1C">Chana Garnick</text>
    <text x="225" y="178" text-anchor="middle" class="body" font-size="20" fill="#5A1A2B">Purple Belt</text>
    <text x="225" y="215" text-anchor="middle" class="display" font-size="34" fill="#3D0F1C">(732) 239-3112</text>
  </g>

  <g transform="translate(560,1370)">
    <rect width="450" height="230" rx="18" ry="18" fill="#F6EFE3"/>
    <g transform="translate(225,42)">
      <circle cx="0" cy="0" r="24" fill="#E8B7B0"/>
      <path d="M-8 -10 C -8 -12, -6 -13, -4 -12 L -2 -6 C -2 -4, -4 -3, -5 -2 C -3 2, 1 6, 5 8 C 6 7, 7 5, 9 5 L 15 7 C 16 9, 15 11, 13 11 C 1 11, -11 -1, -11 -13" fill="none" stroke="#3D0F1C" stroke-width="2.5" stroke-linecap="round" stroke-linejoin="round"/>
    </g>
    <text x="225" y="105" text-anchor="middle" class="heading" font-size="20" fill="#8A2A3B" letter-spacing="3">FIREARMS INSTRUCTOR</text>
    <text x="225" y="148" text-anchor="middle" class="display" font-size="36" fill="#3D0F1C">Yael Quittner</text>
    <text x="225" y="178" text-anchor="middle" class="body" font-size="20" fill="#5A1A2B">USCCA Certified</text>
    <text x="225" y="215" text-anchor="middle" class="display" font-size="34" fill="#3D0F1C">(347) 232-9000</text>
  </g>

  <!-- CHANNELS -->
  <text x="540" y="1680" text-anchor="middle" class="heading" font-size="26" fill="#E8B7B0" letter-spacing="6">CALL  •  TEXT  •  WHATSAPP</text>

  <!-- TAGLINE -->
  <g transform="translate(540,1790)">
    <line x1="-440" y1="-78" x2="440" y2="-78" stroke="#C9A77A" stroke-width="3"/>
    <line x1="-440" y1="78" x2="440" y2="78" stroke="#C9A77A" stroke-width="3"/>
    <text x="0" y="-12" text-anchor="middle" class="display" font-size="50" fill="#F6EFE3">EMPOWERING WOMEN</text>
    <text x="0" y="48" text-anchor="middle" class="display" font-size="44" fill="#F6EFE3">TO PROTECT THEMSELVES</text>
  </g>
</svg>
