<?xml version="1.0" encoding="UTF-8"?>
<svg xmlns="http://www.w3.org/2000/svg" width="1080" height="1920" viewBox="0 0 1080 1920">
  <defs>
    <linearGradient id="bg" x1="0" y1="0" x2="0" y2="1">
      <stop offset="0%" stop-color="#4A0F1F"/>
      <stop offset="50%" stop-color="#5A1A2B"/>
      <stop offset="100%" stop-color="#3D0F1C"/>
    </linearGradient>
    <pattern id="diamonds" x="0" y="0" width="120" height="120" patternUnits="userSpaceOnUse">
      <path d="M60 0 L120 60 L60 120 L0 60 Z" fill="none" stroke="#E8B7B0" stroke-width="1" opacity="0.4"/>
    </pattern>
    <style>
      .display { font-family: "DejaVu Sans"; font-weight: 900; }
      .heading { font-family: "DejaVu Sans"; font-weight: 700; }
      .body    { font-family: "DejaVu Sans"; font-weight: 400; }
    </style>
  </defs>

  <!-- Background -->
  <rect width="1080" height="1920" fill="url(#bg)"/>
  <rect width="1080" height="1920" fill="url(#diamonds)" opacity="0.18"/>

  <!-- Decorative frames -->
  <rect x="40" y="40" width="1000" height="1840" rx="16" ry="16" fill="none" stroke="#E8B7B0" stroke-width="2.5" opacity="0.6"/>
  <rect x="54" y="54" width="972" height="1812" rx="10" ry="10" fill="none" stroke="#E8B7B0" stroke-width="1" opacity="0.30"/>

  <!-- Floral corners -->
  <g opacity="0.85">
    <g transform="translate(75,75)">
      <path d="M0 0 L70 0 M0 0 L0 70" stroke="#E8B7B0" stroke-width="2.5" stroke-linecap="round" fill="none"/>
      <circle cx="14" cy="14" r="5" fill="#E8B7B0"/>
      <path d="M28 28 C 50 22, 65 38, 70 60" stroke="#E8B7B0" stroke-width="2" fill="none" stroke-linecap="round"/>
      <path d="M28 28 C 22 50, 38 65, 60 70" stroke="#E8B7B0" stroke-width="2" fill="none" stroke-linecap="round"/>
      <circle cx="70" cy="60" r="6" fill="none" stroke="#E8B7B0" stroke-width="2"/>
      <circle cx="60" cy="70" r="6" fill="none" stroke="#E8B7B0" stroke-width="2"/>
      <g transform="translate(100,50)">
        <ellipse cx="0" cy="-11" rx="5" ry="12" fill="#E8B7B0" opacity="0.75"/>
        <ellipse cx="11" cy="0" rx="12" ry="5" fill="#E8B7B0" opacity="0.75"/>
        <ellipse cx="0" cy="11" rx="5" ry="12" fill="#E8B7B0" opacity="0.75"/>
        <ellipse cx="-11" cy="0" rx="12" ry="5" fill="#E8B7B0" opacity="0.75"/>
        <circle cx="0" cy="0" r="4" fill="#F6EFE3"/>
      </g>
      <g transform="translate(48,100)">
        <ellipse cx="0" cy="-7" rx="3.5" ry="8" fill="#E8B7B0" opacity="0.75"/>
        <ellipse cx="7" cy="0" rx="8" ry="3.5" fill="#E8B7B0" opacity="0.75"/>
        <ellipse cx="0" cy="7" rx="3.5" ry="8" fill="#E8B7B0" opacity="0.75"/>
        <ellipse cx="-7" cy="0" rx="8" ry="3.5" fill="#E8B7B0" opacity="0.75"/>
        <circle cx="0" cy="0" r="3" fill="#F6EFE3"/>
      </g>
    </g>
    <g transform="translate(1005,75) scale(-1,1)">
      <path d="M0 0 L70 0 M0 0 L0 70" stroke="#E8B7B0" stroke-width="2.5" stroke-linecap="round" fill="none"/>
      <circle cx="14" cy="14" r="5" fill="#E8B7B0"/>
      <path d="M28 28 C 50 22, 65 38, 70 60" stroke="#E8B7B0" stroke-width="2" fill="none" stroke-linecap="round"/>
      <path d="M28 28 C 22 50, 38 65, 60 70" stroke="#E8B7B0" stroke-width="2" fill="none" stroke-linecap="round"/>
      <circle cx="70" cy="60" r="6" fill="none" stroke="#E8B7B0" stroke-width="2"/>
      <circle cx="60" cy="70" r="6" fill="none" stroke="#E8B7B0" stroke-width="2"/>
      <g transform="translate(100,50)">
        <ellipse cx="0" cy="-11" rx="5" ry="12" fill="#E8B7B0" opacity="0.75"/>
        <ellipse cx="11" cy="0" rx="12" ry="5" fill="#E8B7B0" opacity="0.75"/>
        <ellipse cx="0" cy="11" rx="5" ry="12" fill="#E8B7B0" opacity="0.75"/>
        <ellipse cx="-11" cy="0" rx="12" ry="5" fill="#E8B7B0" opacity="0.75"/>
        <circle cx="0" cy="0" r="4" fill="#F6EFE3"/>
      </g>
    </g>
    <g transform="translate(75,1845) scale(1,-1)">
      <path d="M0 0 L70 0 M0 0 L0 70" stroke="#E8B7B0" stroke-width="2.5" stroke-linecap="round" fill="none"/>
      <circle cx="14" cy="14" r="5" fill="#E8B7B0"/>
      <path d="M28 28 C 50 22, 65 38, 70 60" stroke="#E8B7B0" stroke-width="2" fill="none" stroke-linecap="round"/>
      <path d="M28 28 C 22 50, 38 65, 60 70" stroke="#E8B7B0" stroke-width="2" fill="none" stroke-linecap="round"/>
      <circle cx="70" cy="60" r="6" fill="none" stroke="#E8B7B0" stroke-width="2"/>
      <circle cx="60" cy="70" r="6" fill="none" stroke="#E8B7B0" stroke-width="2"/>
      <g transform="translate(100,50)">
        <ellipse cx="0" cy="-11" rx="5" ry="12" fill="#E8B7B0" opacity="0.75"/>
        <ellipse cx="11" cy="0" rx="12" ry="5" fill="#E8B7B0" opacity="0.75"/>
        <ellipse cx="0" cy="11" rx="5" ry="12" fill="#E8B7B0" opacity="0.75"/>
        <ellipse cx="-11" cy="0" rx="12" ry="5" fill="#E8B7B0" opacity="0.75"/>
        <circle cx="0" cy="0" r="4" fill="#F6EFE3"/>
      </g>
    </g>
    <g transform="translate(1005,1845) scale(-1,-1)">
      <path d="M0 0 L70 0 M0 0 L0 70" stroke="#E8B7B0" stroke-width="2.5" stroke-linecap="round" fill="none"/>
      <circle cx="14" cy="14" r="5" fill="#E8B7B0"/>
      <path d="M28 28 C 50 22, 65 38, 70 60" stroke="#E8B7B0" stroke-width="2" fill="none" stroke-linecap="round"/>
      <path d="M28 28 C 22 50, 38 65, 60 70" stroke="#E8B7B0" stroke-width="2" fill="none" stroke-linecap="round"/>
      <circle cx="70" cy="60" r="6" fill="none" stroke="#E8B7B0" stroke-width="2"/>
      <circle cx="60" cy="70" r="6" fill="none" stroke="#E8B7B0" stroke-width="2"/>
      <g transform="translate(100,50)">
        <ellipse cx="0" cy="-11" rx="5" ry="12" fill="#E8B7B0" opacity="0.75"/>
        <ellipse cx="11" cy="0" rx="12" ry="5" fill="#E8B7B0" opacity="0.75"/>
        <ellipse cx="0" cy="11" rx="5" ry="12" fill="#E8B7B0" opacity="0.75"/>
        <ellipse cx="-11" cy="0" rx="12" ry="5" fill="#E8B7B0" opacity="0.75"/>
        <circle cx="0" cy="0" r="4" fill="#F6EFE3"/>
      </g>
    </g>
  </g>

  <!-- HEADER -->
  <text x="540" y="245" text-anchor="middle" class="heading" font-size="30" fill="#E8B7B0" letter-spacing="10">FOR  WOMEN   •   BY  WOMEN</text>

  <text x="540" y="345" text-anchor="middle" class="display" font-size="84" fill="#F6EFE3">WOMEN'S</text>
  <text x="540" y="430" text-anchor="middle" class="display" font-size="84" fill="#F6EFE3">SELF-DEFENSE</text>
  <text x="540" y="515" text-anchor="middle" class="display" font-size="76" fill="#F6EFE3">
    <tspan fill="#C9A77A">&amp;</tspan> FIREARM SAFETY
  </text>

  <line x1="470" y1="560" x2="610" y2="560" stroke="#C9A77A" stroke-width="4" stroke-linecap="round"/>

  <text x="540" y="620" text-anchor="middle" class="heading" font-size="34" fill="#F3D8D4">Jujitsu and Gun Safety Classes</text>
  <text x="540" y="665" text-anchor="middle" class="heading" font-size="34" fill="#F3D8D4">for Women</text>

  <!-- ILLUSTRATION CARDS -->
  <!-- Card 1: Jujitsu (kumikata) -->
  <g transform="translate(70,710)">
    <rect width="450" height="450" rx="20" ry="20" fill="#F6EFE3"/>
    <g transform="translate(48,25) scale(0.92)" fill="#2A0D14">
      <!-- LEFT FIGURE -->
      <path d="M 28 332 L 72 332 L 76 348 L 25 348 Z"/>
      <path d="M 42 332 L 64 332 L 72 200 L 50 200 Z"/>
      <path d="M 90 332 L 132 332 L 136 348 L 88 348 Z"/>
      <path d="M 100 332 L 122 332 L 130 200 L 108 200 Z"/>
      <path d="M 46 195 L 134 195 L 130 218 L 50 218 Z"/>
      <rect x="48" y="201" width="84" height="6" fill="#C9A77A"/>
      <path d="M 60 95 L 138 95 L 144 198 L 50 198 Z"/>
      <path d="M 94 80 L 114 80 L 116 96 L 92 96 Z"/>
      <circle cx="105" cy="60" r="19"/>
      <ellipse cx="86" cy="72" rx="8" ry="10"/>
      <path d="M 130 100 L 200 118 L 200 134 L 128 122 Z"/>
      <path d="M 110 130 L 165 148 L 195 158 L 195 175 L 160 168 L 108 152 Z"/>
      <rect x="196" y="114" width="13" height="22" rx="3"/>
      <rect x="194" y="156" width="13" height="22" rx="3"/>
      <!-- RIGHT FIGURE -->
      <path d="M 298 332 L 342 332 L 346 348 L 295 348 Z"/>
      <path d="M 238 332 L 280 332 L 284 348 L 235 348 Z"/>
      <path d="M 306 332 L 328 332 L 320 200 L 298 200 Z"/>
      <path d="M 248 332 L 270 332 L 262 200 L 240 200 Z"/>
      <path d="M 236 195 L 324 195 L 320 218 L 240 218 Z"/>
      <rect x="238" y="201" width="84" height="6" fill="#C9A77A"/>
      <path d="M 232 95 L 310 95 L 320 198 L 226 198 Z"/>
      <path d="M 256 80 L 276 80 L 278 96 L 254 96 Z"/>
      <circle cx="265" cy="60" r="19"/>
      <ellipse cx="284" cy="72" rx="8" ry="10"/>
      <path d="M 240 100 L 170 118 L 170 134 L 242 122 Z"/>
      <path d="M 260 130 L 205 148 L 175 158 L 175 175 L 210 168 L 262 152 Z"/>
      <rect x="161" y="114" width="13" height="22" rx="3"/>
      <rect x="163" y="156" width="13" height="22" rx="3"/>
      <line x1="20" y1="350" x2="370" y2="350" stroke="#2A0D14" stroke-width="2" opacity="0.4"/>
    </g>
    <text x="225" y="418" text-anchor="middle" class="display" font-size="36" fill="#3D0F1C" letter-spacing="3">JUJITSU</text>
  </g>

  <!-- Card 2: Firearms -->
  <g transform="translate(560,710)">
    <rect width="450" height="450" rx="20" ry="20" fill="#F6EFE3"/>
    <g transform="translate(8,25) scale(0.92)" fill="#2A0D14">
      <!-- INSTRUCTOR -->
      <path d="M 30 332 L 72 332 L 76 348 L 27 348 Z"/>
      <path d="M 62 332 L 102 332 L 106 348 L 59 348 Z"/>
      <path d="M 42 332 L 64 332 L 68 200 L 46 200 Z"/>
      <path d="M 74 332 L 96 332 L 92 200 L 70 200 Z"/>
      <path d="M 36 188 L 102 188 L 98 215 L 40 215 Z"/>
      <rect x="38" y="195" width="62" height="5" fill="#C9A77A"/>
      <path d="M 42 88 L 97 88 L 104 192 L 36 192 Z"/>
      <path d="M 40 98 L 52 98 L 48 192 L 36 192 Z"/>
      <path d="M 88 96 L 170 128 L 174 146 L 92 118 Z"/>
      <rect x="168" y="124" width="20" height="24" rx="4"/>
      <path d="M 59 74 L 78 74 L 80 90 L 57 90 Z"/>
      <circle cx="68" cy="56" r="19"/>
      <ellipse cx="48" cy="65" rx="8" ry="10"/>
      <!-- STUDENT -->
      <path d="M 160 332 L 202 332 L 206 348 L 158 348 Z"/>
      <path d="M 220 332 L 262 332 L 266 348 L 218 348 Z"/>
      <path d="M 172 332 L 194 332 L 198 210 L 176 210 Z"/>
      <path d="M 232 332 L 254 332 L 250 210 L 228 210 Z"/>
      <path d="M 168 198 L 258 198 L 254 222 L 172 222 Z"/>
      <rect x="170" y="206" width="86" height="5" fill="#C9A77A"/>
      <path d="M 174 96 L 256 96 L 262 202 L 168 202 Z"/>
      <path d="M 245 108 L 360 138 L 360 166 L 245 152 Z"/>
      <line x1="255" y1="132" x2="355" y2="154" stroke="#F6EFE3" stroke-width="1.5" opacity="0.45"/>
      <circle cx="364" cy="154" r="12"/>
      <rect x="374" y="138" width="56" height="15" rx="1.5"/>
      <rect x="426" y="132" width="4" height="7"/>
      <rect x="376" y="132" width="4" height="7"/>
      <rect x="370" y="153" width="22" height="7"/>
      <path d="M 374 160 Q 374 176, 390 176 Q 394 168, 392 160 Z"/>
      <path d="M 366 158 L 358 190 L 380 192 L 384 160 Z"/>
      <path d="M 200 82 L 218 82 L 220 98 L 198 98 Z"/>
      <circle cx="208" cy="62" r="19"/>
      <ellipse cx="188" cy="71" rx="8" ry="10"/>
      <line x1="20" y1="350" x2="450" y2="350" stroke="#2A0D14" stroke-width="2" opacity="0.4"/>
    </g>
    <text x="225" y="418" text-anchor="middle" class="display" font-size="30" fill="#3D0F1C" letter-spacing="3">FIREARM SAFETY</text>
  </g>

  <!-- PILLS -->
  <g transform="translate(540,1225)">
    <g transform="translate(-260,0)">
      <rect x="-135" y="-30" width="270" height="60" rx="30" ry="30" fill="#E8B7B0"/>
      <text x="0" y="9" text-anchor="middle" class="heading" font-size="24" fill="#3D0F1C" letter-spacing="2">PRIVATE LESSONS</text>
    </g>
    <g transform="translate(260,0)">
      <rect x="-135" y="-30" width="270" height="60" rx="30" ry="30" fill="#E8B7B0"/>
      <text x="0" y="9" text-anchor="middle" class="heading" font-size="24" fill="#3D0F1C" letter-spacing="2">GROUP CLASSES</text>
    </g>
  </g>

  <!-- LOCATION -->
  <text x="540" y="1335" text-anchor="middle" class="display" font-size="42" fill="#F6EFE3" letter-spacing="4">
    <tspan fill="#C9A77A">◆</tspan>  LAKEWOOD, NJ  <tspan fill="#C9A77A">◆</tspan>
  </text>

  <!-- CONTACT CARDS -->
  <g transform="translate(70,1370)">
    <rect width="450" height="230" rx="18" ry="18" fill="#F6EFE3"/>
    <g transform="translate(225,42)">
      <circle cx="0" cy="0" r="24" fill="#E8B7B0"/>
      <path d="M-8 -10 C -8 -12, -6 -13, -4 -12 L -2 -6 C -2 -4, -4 -3, -5 -2 C -3 2, 1 6, 5 8 C 6 7, 7 5, 9 5 L 15 7 C 16 9, 15 11, 13 11 C 1 11, -11 -1, -11 -13" fill="none" stroke="#3D0F1C" stroke-width="2.5" stroke-linecap="round" stroke-linejoin="round"/>
    </g>
    <text x="225" y="105" text-anchor="middle" class="heading" font-size="20" fill="#8A2A3B" letter-spacing="3">JUJITSU INSTRUCTOR</text>
    <text x="225" y="148" text-anchor="middle" class="display" font-size="36" fill="#3D0F1C">Chana Garnick</text>
    <text x="225" y="178" text-anchor="middle" class="body" font-size="20" fill="#5A1A2B">Purple Belt</text>
    <text x="225" y="215" text-anchor="middle" class="display" font-size="34" fill="#3D0F1C">(732) 239-3112</text>
  </g>

  <g transform="translate(560,1370)">
    <rect width="450" height="230" rx="18" ry="18" fill="#F6EFE3"/>
    <g transform="translate(225,42)">
      <circle cx="0" cy="0" r="24" fill="#E8B7B0"/>
      <path d="M-8 -10 C -8 -12, -6 -13, -4 -12 L -2 -6 C -2 -4, -4 -3, -5 -2 C -3 2, 1 6, 5 8 C 6 7, 7 5, 9 5 L 15 7 C 16 9, 15 11, 13 11 C 1 11, -11 -1, -11 -13" fill="none" stroke="#3D0F1C" stroke-width="2.5" stroke-linecap="round" stroke-linejoin="round"/>
    </g>
    <text x="225" y="105" text-anchor="middle" class="heading" font-size="20" fill="#8A2A3B" letter-spacing="3">FIREARMS INSTRUCTOR</text>
    <text x="225" y="148" text-anchor="middle" class="display" font-size="36" fill="#3D0F1C">Yael Quittner</text>
    <text x="225" y="178" text-anchor="middle" class="body" font-size="20" fill="#5A1A2B">USCCA Certified</text>
    <text x="225" y="215" text-anchor="middle" class="display" font-size="34" fill="#3D0F1C">(347) 232-9000</text>
  </g>

  <!-- CHANNELS -->
  <text x="540" y="1680" text-anchor="middle" class="heading" font-size="26" fill="#E8B7B0" letter-spacing="6">CALL  •  TEXT  •  WHATSAPP</text>

  <!-- TAGLINE -->
  <g transform="translate(540,1790)">
    <line x1="-400" y1="-42" x2="400" y2="-42" stroke="#C9A77A" stroke-width="2.5"/>
    <line x1="-400" y1="42" x2="400" y2="42" stroke="#C9A77A" stroke-width="2.5"/>
    <text x="0" y="15" text-anchor="middle" class="display" font-size="38" fill="#F6EFE3">
      Empowering Women <tspan fill="#C9A77A">to</tspan> Protect Themselves
    </text>
  </g>
</svg>
