<?xml version="1.0" encoding="UTF-8"?>
<svg xmlns="http://www.w3.org/2000/svg" width="1080" height="1920" viewBox="0 0 1080 1920">
  <defs>
    <linearGradient id="bg" x1="0" y1="0" x2="0" y2="1">
      <stop offset="0%" stop-color="#2E0A4F"/>
      <stop offset="55%" stop-color="#4A1D7A"/>
      <stop offset="100%" stop-color="#2E0A4F"/>
    </linearGradient>
    <pattern id="diamonds" x="0" y="0" width="120" height="120" patternUnits="userSpaceOnUse">
      <path d="M60 0 L120 60 L60 120 L0 60 Z" fill="none" stroke="#EDE3FA" stroke-width="1" opacity="0.5"/>
    </pattern>
    <style>
      .head    { font-family: "DejaVu Sans"; font-weight: 900; }
      .body    { font-family: "DejaVu Sans"; font-weight: 700; }
      .light   { font-family: "DejaVu Sans"; font-weight: 400; }
    </style>
  </defs>

  <!-- Background -->
  <rect width="1080" height="1920" fill="url(#bg)"/>
  <rect width="1080" height="1920" fill="url(#diamonds)" opacity="0.18"/>

  <!-- Decorative frames -->
  <rect x="40" y="40" width="1000" height="1840" rx="14" ry="14" fill="none" stroke="#D9C7F0" stroke-width="2.5" opacity="0.55"/>
  <rect x="52" y="52" width="976" height="1816" rx="10" ry="10" fill="none" stroke="#D9C7F0" stroke-width="1" opacity="0.30"/>

  <!-- Corner flourishes -->
  <g opacity="0.85">
    <!-- Top-left -->
    <g transform="translate(70,70)">
      <path d="M0 0 L70 0" stroke="#D9C7F0" stroke-width="2" stroke-linecap="round" fill="none"/>
      <path d="M0 0 L0 70" stroke="#D9C7F0" stroke-width="2" stroke-linecap="round" fill="none"/>
      <circle cx="12" cy="12" r="5" fill="#D9C7F0"/>
      <path d="M25 25 C 45 20, 60 35, 65 55" stroke="#D9C7F0" stroke-width="2" fill="none" stroke-linecap="round"/>
      <path d="M25 25 C 20 45, 35 60, 55 65" stroke="#D9C7F0" stroke-width="2" fill="none" stroke-linecap="round"/>
      <circle cx="65" cy="55" r="6" fill="none" stroke="#D9C7F0" stroke-width="2"/>
      <circle cx="55" cy="65" r="6" fill="none" stroke="#D9C7F0" stroke-width="2"/>
      <g transform="translate(95,45)">
        <ellipse cx="0" cy="-10" rx="5" ry="11" fill="#D9C7F0" opacity="0.7"/>
        <ellipse cx="10" cy="0" rx="11" ry="5" fill="#D9C7F0" opacity="0.7"/>
        <ellipse cx="0" cy="10" rx="5" ry="11" fill="#D9C7F0" opacity="0.7"/>
        <ellipse cx="-10" cy="0" rx="11" ry="5" fill="#D9C7F0" opacity="0.7"/>
        <circle cx="0" cy="0" r="4" fill="#EDE3FA"/>
      </g>
      <g transform="translate(45,95)">
        <ellipse cx="0" cy="-7" rx="3.5" ry="8" fill="#D9C7F0" opacity="0.7"/>
        <ellipse cx="7" cy="0" rx="8" ry="3.5" fill="#D9C7F0" opacity="0.7"/>
        <ellipse cx="0" cy="7" rx="3.5" ry="8" fill="#D9C7F0" opacity="0.7"/>
        <ellipse cx="-7" cy="0" rx="8" ry="3.5" fill="#D9C7F0" opacity="0.7"/>
        <circle cx="0" cy="0" r="3" fill="#EDE3FA"/>
      </g>
    </g>
    <!-- Top-right (mirrored) -->
    <g transform="translate(1010,70) scale(-1,1)">
      <path d="M0 0 L70 0" stroke="#D9C7F0" stroke-width="2" stroke-linecap="round" fill="none"/>
      <path d="M0 0 L0 70" stroke="#D9C7F0" stroke-width="2" stroke-linecap="round" fill="none"/>
      <circle cx="12" cy="12" r="5" fill="#D9C7F0"/>
      <path d="M25 25 C 45 20, 60 35, 65 55" stroke="#D9C7F0" stroke-width="2" fill="none" stroke-linecap="round"/>
      <path d="M25 25 C 20 45, 35 60, 55 65" stroke="#D9C7F0" stroke-width="2" fill="none" stroke-linecap="round"/>
      <circle cx="65" cy="55" r="6" fill="none" stroke="#D9C7F0" stroke-width="2"/>
      <circle cx="55" cy="65" r="6" fill="none" stroke="#D9C7F0" stroke-width="2"/>
      <g transform="translate(95,45)">
        <ellipse cx="0" cy="-10" rx="5" ry="11" fill="#D9C7F0" opacity="0.7"/>
        <ellipse cx="10" cy="0" rx="11" ry="5" fill="#D9C7F0" opacity="0.7"/>
        <ellipse cx="0" cy="10" rx="5" ry="11" fill="#D9C7F0" opacity="0.7"/>
        <ellipse cx="-10" cy="0" rx="11" ry="5" fill="#D9C7F0" opacity="0.7"/>
        <circle cx="0" cy="0" r="4" fill="#EDE3FA"/>
      </g>
      <g transform="translate(45,95)">
        <ellipse cx="0" cy="-7" rx="3.5" ry="8" fill="#D9C7F0" opacity="0.7"/>
        <ellipse cx="7" cy="0" rx="8" ry="3.5" fill="#D9C7F0" opacity="0.7"/>
        <ellipse cx="0" cy="7" rx="3.5" ry="8" fill="#D9C7F0" opacity="0.7"/>
        <ellipse cx="-7" cy="0" rx="8" ry="3.5" fill="#D9C7F0" opacity="0.7"/>
        <circle cx="0" cy="0" r="3" fill="#EDE3FA"/>
      </g>
    </g>
    <!-- Bottom-left (mirrored vert) -->
    <g transform="translate(70,1850) scale(1,-1)">
      <path d="M0 0 L70 0" stroke="#D9C7F0" stroke-width="2" stroke-linecap="round" fill="none"/>
      <path d="M0 0 L0 70" stroke="#D9C7F0" stroke-width="2" stroke-linecap="round" fill="none"/>
      <circle cx="12" cy="12" r="5" fill="#D9C7F0"/>
      <path d="M25 25 C 45 20, 60 35, 65 55" stroke="#D9C7F0" stroke-width="2" fill="none" stroke-linecap="round"/>
      <path d="M25 25 C 20 45, 35 60, 55 65" stroke="#D9C7F0" stroke-width="2" fill="none" stroke-linecap="round"/>
      <circle cx="65" cy="55" r="6" fill="none" stroke="#D9C7F0" stroke-width="2"/>
      <circle cx="55" cy="65" r="6" fill="none" stroke="#D9C7F0" stroke-width="2"/>
      <g transform="translate(95,45)">
        <ellipse cx="0" cy="-10" rx="5" ry="11" fill="#D9C7F0" opacity="0.7"/>
        <ellipse cx="10" cy="0" rx="11" ry="5" fill="#D9C7F0" opacity="0.7"/>
        <ellipse cx="0" cy="10" rx="5" ry="11" fill="#D9C7F0" opacity="0.7"/>
        <ellipse cx="-10" cy="0" rx="11" ry="5" fill="#D9C7F0" opacity="0.7"/>
        <circle cx="0" cy="0" r="4" fill="#EDE3FA"/>
      </g>
    </g>
    <!-- Bottom-right -->
    <g transform="translate(1010,1850) scale(-1,-1)">
      <path d="M0 0 L70 0" stroke="#D9C7F0" stroke-width="2" stroke-linecap="round" fill="none"/>
      <path d="M0 0 L0 70" stroke="#D9C7F0" stroke-width="2" stroke-linecap="round" fill="none"/>
      <circle cx="12" cy="12" r="5" fill="#D9C7F0"/>
      <path d="M25 25 C 45 20, 60 35, 65 55" stroke="#D9C7F0" stroke-width="2" fill="none" stroke-linecap="round"/>
      <path d="M25 25 C 20 45, 35 60, 55 65" stroke="#D9C7F0" stroke-width="2" fill="none" stroke-linecap="round"/>
      <circle cx="65" cy="55" r="6" fill="none" stroke="#D9C7F0" stroke-width="2"/>
      <circle cx="55" cy="65" r="6" fill="none" stroke="#D9C7F0" stroke-width="2"/>
      <g transform="translate(95,45)">
        <ellipse cx="0" cy="-10" rx="5" ry="11" fill="#D9C7F0" opacity="0.7"/>
        <ellipse cx="10" cy="0" rx="11" ry="5" fill="#D9C7F0" opacity="0.7"/>
        <ellipse cx="0" cy="10" rx="5" ry="11" fill="#D9C7F0" opacity="0.7"/>
        <ellipse cx="-10" cy="0" rx="11" ry="5" fill="#D9C7F0" opacity="0.7"/>
        <circle cx="0" cy="0" r="4" fill="#EDE3FA"/>
      </g>
    </g>
  </g>

  <!-- HEADER -->
  <text x="540" y="240" text-anchor="middle" class="body" font-size="30" fill="#D9C7F0" letter-spacing="10">FOR  WOMEN   •   BY  WOMEN</text>

  <text x="540" y="345" text-anchor="middle" class="head" font-size="82" fill="#FFFFFF">WOMEN'S</text>
  <text x="540" y="430" text-anchor="middle" class="head" font-size="82" fill="#FFFFFF">SELF-DEFENSE</text>
  <text x="540" y="515" text-anchor="middle" class="head" font-size="74" fill="#FFFFFF">
    <tspan fill="#D9C7F0">&amp;</tspan> FIREARM SAFETY
  </text>

  <line x1="470" y1="560" x2="610" y2="560" stroke="#D9C7F0" stroke-width="4" stroke-linecap="round"/>

  <text x="540" y="615" text-anchor="middle" class="body" font-size="34" fill="#EDE3FA">Jujitsu and Gun Safety Classes</text>
  <text x="540" y="660" text-anchor="middle" class="body" font-size="34" fill="#EDE3FA">for Women</text>

  <!-- ILLUSTRATIONS ROW -->
  <!-- Jujitsu card -->
  <g transform="translate(70,720)">
    <rect width="450" height="420" rx="20" ry="20" fill="#D9C7F0" fill-opacity="0.10" stroke="#D9C7F0" stroke-opacity="0.4" stroke-width="1.5"/>
    <!-- silhouette area, scaled -->
    <g transform="translate(25,30) scale(1.0)">
      <svg x="0" y="0" width="400" height="320" viewBox="0 0 400 360">
        <ellipse cx="200" cy="330" rx="140" ry="10" fill="#1A0530" opacity="0.35"/>
        <!-- DEFENDER -->
        <g fill="#1A0530">
          <path d="M205 200 C 215 210, 230 240, 232 300 L 248 320 L 252 332 L 220 332 L 212 320 C 205 280, 195 230, 188 210 Z"/>
          <path d="M178 198 C 168 215, 158 250, 156 285 L 140 320 L 132 332 L 168 332 L 174 318 C 184 285, 198 235, 200 208 Z"/>
          <rect x="170" y="190" width="60" height="16" rx="3"/>
          <rect x="170" y="196" width="60" height="5" fill="#D9C7F0"/>
          <path d="M165 110 C 158 115, 154 140, 156 170 L 162 195 L 238 195 L 244 170 C 246 140, 242 115, 235 110 C 220 95, 180 95, 165 110 Z"/>
          <path d="M200 115 L 188 170 L 200 178 L 212 170 Z" fill="#2E0A4F"/>
          <path d="M158 125 C 140 130, 122 150, 118 175 C 116 188, 122 196, 130 196 C 138 194, 148 175, 156 158 Z"/>
          <path d="M242 125 C 268 130, 296 138, 318 130 C 326 128, 330 138, 326 146 C 308 158, 280 168, 252 162 Z"/>
          <circle cx="320" cy="135" r="9"/>
          <path d="M192 95 L 208 95 L 210 112 L 190 112 Z"/>
          <circle cx="200" cy="80" r="22"/>
          <path d="M178 76 C 175 60, 188 50, 200 50 C 215 50, 226 60, 223 78 C 218 70, 210 66, 200 66 C 188 66, 182 70, 178 76 Z"/>
          <circle cx="180" cy="86" r="7"/>
        </g>
        <!-- ATTACKER thrown -->
        <g fill="#1A0530">
          <path d="M240 90 C 260 70, 295 65, 325 80 C 345 92, 352 110, 345 122 C 332 130, 300 128, 275 118 C 258 110, 245 100, 240 90 Z"/>
          <path d="M260 78 C 245 60, 230 48, 215 42 C 207 39, 200 46, 205 54 C 220 70, 240 82, 256 88 Z"/>
          <circle cx="252" cy="62" r="16"/>
          <path d="M238 56 C 233 44, 250 36, 262 40 C 270 42, 270 50, 264 54 C 258 50, 246 50, 240 56 Z"/>
          <path d="M335 95 C 360 80, 380 60, 370 40 C 365 32, 354 33, 350 42 C 344 58, 332 72, 322 88 Z"/>
          <path d="M312 110 C 335 105, 360 95, 360 78 C 358 70, 348 70, 342 78 C 330 90, 314 100, 300 108 Z"/>
          <circle cx="208" cy="48" r="7"/>
        </g>
        <line x1="60" y1="332" x2="340" y2="332" stroke="#D9C7F0" stroke-width="1.5" opacity="0.4"/>
      </svg>
    </g>
    <text x="225" y="385" text-anchor="middle" class="head" font-size="34" fill="#FFFFFF" letter-spacing="3">JUJITSU</text>
  </g>

  <!-- Firearm card -->
  <g transform="translate(560,720)">
    <rect width="450" height="420" rx="20" ry="20" fill="#D9C7F0" fill-opacity="0.10" stroke="#D9C7F0" stroke-opacity="0.4" stroke-width="1.5"/>
    <g transform="translate(25,30)">
      <svg x="0" y="0" width="400" height="320" viewBox="0 0 400 360">
        <ellipse cx="200" cy="338" rx="150" ry="10" fill="#1A0530" opacity="0.35"/>
        <!-- INSTRUCTOR -->
        <g fill="#1A0530">
          <path d="M115 230 C 112 270, 110 310, 108 338 L 132 338 C 134 305, 136 270, 138 235 Z"/>
          <path d="M142 230 C 144 270, 146 310, 148 338 L 168 338 C 168 305, 165 270, 162 235 Z"/>
          <rect x="105" y="218" width="68" height="14" rx="3"/>
          <rect x="105" y="223" width="68" height="4" fill="#D9C7F0" opacity="0.7"/>
          <path d="M108 120 C 100 132, 98 175, 102 220 L 176 220 C 180 175, 178 132, 170 120 C 156 105, 122 105, 108 120 Z"/>
          <path d="M104 130 C 92 150, 88 180, 92 215 C 94 220, 102 220, 104 215 C 110 180, 114 150, 116 132 Z"/>
          <path d="M168 130 C 192 140, 220 160, 240 180 C 246 185, 246 196, 240 200 C 218 198, 198 188, 178 174 Z"/>
          <circle cx="244" cy="192" r="10"/>
          <path d="M132 108 L 148 108 L 150 122 L 130 122 Z"/>
          <circle cx="140" cy="92" r="22"/>
          <path d="M118 88 C 114 70, 130 60, 142 60 C 158 60, 168 72, 164 90 C 158 80, 150 76, 140 76 C 130 76, 124 80, 120 88 Z"/>
          <circle cx="120" cy="100" r="7"/>
        </g>
        <!-- STUDENT -->
        <g fill="#1A0530">
          <path d="M225 235 C 222 275, 222 312, 222 338 L 244 338 C 246 308, 248 275, 250 240 Z"/>
          <path d="M254 235 C 256 275, 258 312, 260 338 L 282 338 C 282 308, 280 275, 276 240 Z"/>
          <rect x="218" y="222" width="68" height="14" rx="3"/>
          <rect x="218" y="227" width="68" height="4" fill="#D9C7F0" opacity="0.7"/>
          <path d="M222 124 C 214 138, 212 180, 216 224 L 290 224 C 294 180, 292 138, 284 124 C 270 108, 236 108, 222 124 Z"/>
          <path d="M282 134 C 300 150, 318 168, 332 188 C 336 195, 334 202, 328 204 L 308 198 C 290 184, 274 168, 264 152 Z"/>
          <path d="M222 138 C 240 156, 264 178, 290 198 C 296 202, 296 210, 290 212 L 268 208 C 248 196, 232 180, 218 162 Z"/>
          <path d="M310 198 C 322 196, 332 204, 332 212 C 332 220, 322 224, 312 220 C 306 218, 304 210, 308 204 Z"/>
          <path d="M298 210 C 308 208, 318 214, 318 222 C 318 230, 308 232, 298 228 C 292 226, 290 218, 294 214 Z"/>
          <!-- handgun -->
          <rect x="326" y="200" width="48" height="16" rx="2"/>
          <rect x="370" y="196" width="3" height="6"/>
          <rect x="328" y="196" width="3" height="6"/>
          <rect x="322" y="214" width="20" height="6"/>
          <path d="M328 220 C 328 232, 340 234, 342 222 L 342 220 Z"/>
          <path d="M320 218 L 314 244 L 332 246 L 336 220 Z"/>
          <path d="M245 112 L 261 112 L 263 126 L 243 126 Z"/>
          <circle cx="253" cy="96" r="22"/>
          <path d="M231 92 C 227 74, 243 64, 255 64 C 271 64, 281 76, 277 94 C 271 84, 263 80, 253 80 C 243 80, 237 84, 233 92 Z"/>
          <circle cx="273" cy="106" r="7"/>
        </g>
        <line x1="50" y1="338" x2="350" y2="338" stroke="#D9C7F0" stroke-width="1.5" opacity="0.4"/>
      </svg>
    </g>
    <text x="225" y="385" text-anchor="middle" class="head" font-size="32" fill="#FFFFFF" letter-spacing="3">FIREARM SAFETY</text>
  </g>

  <!-- INFO BAND -->
  <!-- Pills -->
  <g transform="translate(540,1200)">
    <!-- Private Lessons -->
    <g transform="translate(-260,0)">
      <rect x="-130" y="-30" width="260" height="60" rx="30" ry="30" fill="#D9C7F0"/>
      <text x="0" y="9" text-anchor="middle" class="head" font-size="24" fill="#2E0A4F" letter-spacing="2">PRIVATE LESSONS</text>
    </g>
    <!-- Group Classes -->
    <g transform="translate(260,0)">
      <rect x="-130" y="-30" width="260" height="60" rx="30" ry="30" fill="#D9C7F0"/>
      <text x="0" y="9" text-anchor="middle" class="head" font-size="24" fill="#2E0A4F" letter-spacing="2">GROUP CLASSES</text>
    </g>
  </g>

  <!-- Location -->
  <text x="540" y="1305" text-anchor="middle" class="head" font-size="40" fill="#FFFFFF" letter-spacing="4">
    <tspan fill="#D9C7F0">◆</tspan>  LAKEWOOD, NJ  <tspan fill="#D9C7F0">◆</tspan>
  </text>

  <!-- CONTACT CARDS -->
  <!-- Card 1: Chana -->
  <g transform="translate(70,1360)">
    <rect width="450" height="220" rx="18" ry="18" fill="#FFFFFF"/>
    <!-- phone icon -->
    <g transform="translate(225,40)">
      <circle cx="0" cy="0" r="24" fill="#EDE3FA"/>
      <path d="M-8 -10 C -8 -12, -6 -13, -4 -12 L -2 -6 C -2 -4, -4 -3, -5 -2 C -3 2, 1 6, 5 8 C 6 7, 7 5, 9 5 L 15 7 C 16 9, 15 11, 13 11 C 1 11, -11 -1, -11 -13" fill="none" stroke="#2E0A4F" stroke-width="2.5" stroke-linecap="round" stroke-linejoin="round"/>
    </g>
    <text x="225" y="100" text-anchor="middle" class="head" font-size="20" fill="#6B2FB3" letter-spacing="3">JUJITSU INSTRUCTOR</text>
    <text x="225" y="142" text-anchor="middle" class="head" font-size="34" fill="#2E0A4F">Chana Garnick</text>
    <text x="225" y="172" text-anchor="middle" class="body" font-size="20" fill="#4A1D7A">Purple Belt</text>
    <text x="225" y="208" text-anchor="middle" class="head" font-size="34" fill="#2E0A4F">(732) 239-3112</text>
  </g>

  <!-- Card 2: Yael -->
  <g transform="translate(560,1360)">
    <rect width="450" height="220" rx="18" ry="18" fill="#FFFFFF"/>
    <g transform="translate(225,40)">
      <circle cx="0" cy="0" r="24" fill="#EDE3FA"/>
      <path d="M-8 -10 C -8 -12, -6 -13, -4 -12 L -2 -6 C -2 -4, -4 -3, -5 -2 C -3 2, 1 6, 5 8 C 6 7, 7 5, 9 5 L 15 7 C 16 9, 15 11, 13 11 C 1 11, -11 -1, -11 -13" fill="none" stroke="#2E0A4F" stroke-width="2.5" stroke-linecap="round" stroke-linejoin="round"/>
    </g>
    <text x="225" y="100" text-anchor="middle" class="head" font-size="20" fill="#6B2FB3" letter-spacing="3">FIREARMS INSTRUCTOR</text>
    <text x="225" y="142" text-anchor="middle" class="head" font-size="34" fill="#2E0A4F">Yael Quittner</text>
    <text x="225" y="172" text-anchor="middle" class="body" font-size="20" fill="#4A1D7A">USCCA Certified</text>
    <text x="225" y="208" text-anchor="middle" class="head" font-size="34" fill="#2E0A4F">(347) 232-9000</text>
  </g>

  <!-- CHANNELS -->
  <text x="540" y="1665" text-anchor="middle" class="body" font-size="26" fill="#D9C7F0" letter-spacing="6">CALL  •  TEXT  •  WHATSAPP</text>

  <!-- TAGLINE -->
  <g transform="translate(540,1780)">
    <line x1="-380" y1="-40" x2="380" y2="-40" stroke="#D9C7F0" stroke-width="2.5"/>
    <line x1="-380" y1="40" x2="380" y2="40" stroke="#D9C7F0" stroke-width="2.5"/>
    <text x="0" y="14" text-anchor="middle" class="head" font-size="38" fill="#FFFFFF">
      Empowering Women <tspan fill="#D9C7F0">to</tspan> Protect Themselves
    </text>
  </g>
</svg>
